{"title":"3000 Miles to Graceland - [Action] - (2001) -  x264  720p - [=Fa","uid":9933146,"size":1578513298,"categoryP":"video","categoryS":"hd___movies","magnet":"?xt=urn:btih:66f72a153f202d8e595b840e91d5549beb653f2a&amp;dn=3000+Miles+to+Graceland+-+%5BAction%5D+-+%282001%29+-++x264++720p+-+%5B%3DFa&amp;tr=udp%3A%2F%2Ftracker.openbittorrent.com%3A80&amp;tr=udp%3A%2F%2Fopen.demonii.com%3A1337&amp;tr=udp%3A%2F%2Ftracker.coppersurfer.tk%3A6969&amp;tr=udp%3A%2F%2Fexodus.desync.com%3A6969","seeders":0,"leechers":3,"uploader":"Faithwyn","files":3,"time":1397127410,"description":"                            3000 Miles to Graceland\n\n3000 Miles to Graceland is a 2001 crime film, starring Kurt Russell, Kevin Costner, Courteney Cox, David Arquette, Bokeem Woodbine, Christian Slater, and Kevin Pollak. It is a story of theft and betrayal, revolving around a plot to rob the Riviera Casino during a convention of Elvis impersonators\n\nFilm:\nTitle                                    : 3000 Miles To Graceland\nGenre                                    : Action\nLength                                   : 2:05\nReleased                                 : February 23, 2001\nLanguage                                 : English, French\nIMDB Rating                              : 5.9\n\nGeneral:\nComplete name                            : 3000 Miles To Graceland.mp4\nFormat                                   : MPEG-4\nFormat profile                           : Base Media / Version 2\nCodec ID                                 : mp42\nFile size                                : 1.47 GiB\nDuration                                 : 2h 5mn\nOverall bit rate mode                    : Variable\nOverall bit rate                         : 1 680 Kbps\nEncoded date                             : UTC 2014-04-10 04:57:33\nTagged date                              : UTC 2014-04-10 05:48:13\nWriting application                      : HandBrake 0.9.9 2013052900\n\nVideo\nID                                       : 1\nFormat                                   : AVC\nFormat/Info                              : Advanced Video Codec\nFormat profile                           : &lt;a class=&quot;__cf_email__&quot; href=&quot;/cdn-cgi/l/email-protection&quot; data-cfemail=&quot;094468606749453d2739&quot;&gt;[email&amp;#160;protected]&lt;/a&gt;&lt;script cf-hash='f9e31' type=&quot;text/javascript&quot;&gt;\n/* &lt;![CDATA[ */!function(){try{var t=&quot;currentScript&quot;in document?document.currentScript:function(){for(var t=document.getElementsByTagName(&quot;script&quot;),e=t.length;e--;)if(t[e].getAttribute(&quot;cf-hash&quot;))return t[e]}();if(t&amp;&amp;t.previousSibling){var e,r,n,i,c=t.previousSibling,a=c.getAttribute(&quot;data-cfemail&quot;);if(a){for(e=&quot;&quot;,r=parseInt(a.substr(0,2),16),n=2;a.length-n;n+=2)i=parseInt(a.substr(n,2),16)^r,e+=String.fromCharCode(i);e=document.createTextNode(e),c.parentNode.replaceChild(e,c)}}}catch(u){}}();/* ]]&gt; */&lt;/script&gt;\nFormat settings, CABAC                   : Yes\nFormat settings, ReFrames                : 5 frames\nCodec ID                                 : avc1\nCodec ID/Info                            : Advanced Video Coding\nDuration                                 : 2h 5mn\nBit rate mode                            : Variable\nBit rate                                 : 1 289 Kbps\nWidth                                    : 720 pixels\nHeight                                   : 304 pixels\nDisplay aspect ratio                     : 2.35:1\nFrame rate mode                          : Variable\nFrame rate                               : 23.976 fps\nMinimum frame rate                       : 23.974 fps\nMaximum frame rate                       : 23.981 fps\nColor space                              : YUV\nChroma subsampling                       : 4:2:0\nBit depth                                : 8 bits\nScan type                                : Progressive\nBits/(Pixel*Frame)                       : 0.246\nStream size                              : 1.13 GiB (77%)\nWriting library                          : x264 core 130 r2273 b3065e6\nEncoded date                             : UTC 2014-04-10 04:57:33\nTagged date                              : UTC 2014-04-10 05:48:13\nColor primaries                          : BT.601 NTSC\nTransfer characteristics                 : BT.709\nMatrix coefficients                      : BT.601\n\nAudio #1\nID                                       : 2\nFormat                                   : AAC\nFormat/Info                              : Advanced Audio Codec\nFormat profile                           : LC\nCodec ID                                 : 40\nDuration                                 : 2h 5mn\nBit rate mode                            : Variable\nBit rate                                 : 192 Kbps\nMaximum bit rate                         : 262 Kbps\nChannel(s)                               : 2 channels\nChannel positions                        : Front: L R\nSampling rate                            : 48.0 KHz\nCompression mode                         : Lossy\nDelay relative to video                  : 83ms\nStream size                              : 172 MiB (11%)\nLanguage                                 : English\nEncoded date                             : UTC 2014-04-10 04:57:33\nTagged date                              : UTC 2014-04-10 05:48:13\n\nAudio #2\nID                                       : 3\nFormat                                   : AAC\nFormat/Info                              : Advanced Audio Codec\nFormat profile                           : LC\nCodec ID                                 : 40\nDuration                                 : 2h 5mn\nBit rate mode                            : Variable\nBit rate                                 : 192 Kbps\nMaximum bit rate                         : 265 Kbps\nChannel(s)                               : 2 channels\nChannel positions                        : Front: L R\nSampling rate                            : 48.0 KHz\nCompression mode                         : Lossy\nDelay relative to video                  : 83ms\nStream size                              : 172 MiB (11%)\nLanguage                                 : French\nEncoded date                             : UTC 2014-04-10 04:57:33\nTagged date                              : UTC 2014-04-10 05:48:13\n\n\n","torrent":{"xt":"urn:btih:66f72a153f202d8e595b840e91d5549beb653f2a","amp;dn":"3000+Miles+to+Graceland+-+%5BAction%5D+-+%282001%29+-++x264++720p+-+%5B%3DFa","amp;tr":["udp%3A%2F%2Ftracker.openbittorrent.com%3A80","udp%3A%2F%2Fopen.demonii.com%3A1337","udp%3A%2F%2Ftracker.coppersurfer.tk%3A6969","udp%3A%2F%2Fexodus.desync.com%3A6969"],"infoHash":"66f72a153f202d8e595b840e91d5549beb653f2a","infoHashBuffer":{"type":"Buffer","data":[102,247,42,21,63,32,45,142,89,91,132,14,145,213,84,155,235,101,63,42]},"announce":[],"urlList":[]}}